<?xml version="1.0" encoding="UTF-8" standalone="no"?>
<svg 
   width="654pt"
   height="276pt"
   viewBox="0 0 654 276"
   version="1.1"
   id="svg57"
   xmlns="http://www.w3.org/2000/svg"
   xmlns:svg="http://www.w3.org/2000/svg" content="%3Cmxfile%20host%3D%22app.diagrams.net%22%20modified%3D%222022-06-14T22%3A35%3A50.019Z%22%20agent%3D%225.0%20(Macintosh%3B%20Intel%20Mac%20OS%20X%2010_15_7)%20AppleWebKit%2F537.36%20(KHTML%2C%20like%20Gecko)%20Chrome%2F100.0.4896.127%20Safari%2F537.36%22%20etag%3D%22D8Drk7cSm-eq_7928Hn4%22%20version%3D%2220.0.1%22%3E%3Cdiagram%20id%3D%22D0pzC1vZ5kzDGtk6pru6%22%20name%3D%22Page-1%22%3E7VhNb6MwEP01OQYBBpocm7TpXiqtlsNKe1k5YMCtwV7jbGh%2F%2FdrY5iMhaqvtRw4hUrDfjMeD35tBYgbWZXPHISvuaYrIzHfTZgZuZr4feMGVvCnkSSPADYBGco5TjXk9EONnZEDXoDuconrkKCglArMxmNCqQokYYZBzuh%2B7ZZSMd2UwNzu6PRAnkKAjt584FYVGF%2F5Vj39DOC%2Fszl601JYSWmcTuC5gSvcDCNzOwJpTKvSobNaIqNOz56LXbU5Yu8Q4qsRrFvx6SB5Ids9%2B3MTZdht7d%2Bw5ndvk%2FkKyM09sshVP9gg43VUpUlHcGVjtCyxQzGCirHvJusQKURI58%2BSwe0rlm9FKbGCJiWL%2FO2UMV7WBY7rjbYhCCEmlH4Jr%2BSeTV3%2FKoXZySnOCIMO1k9CyNSR167rJdFA5PAyrBeQv7fZrSihvnwN4gfqpHAWnj8haKlqhDrQcL9RyTMhgudteEjcnhrhAzUkuvI5hWRuIlkhwma9rFswDc%2B5P3dxZhBraD2QWGbdiIDEAIufKiAwadefdDr0A5MBo4A168JYTeoiIMKepKhkKOFfjec2T1iP6s1MaXmkmFY%2BSxRMctgx2%2FPXsdUFUjWpt9diUU69PC%2BqcWv5lCq6UAGta335VlKs7rAv7TCZPazmSvmRYHOh7SjtDpRgIEpxXcppIRSCJr5ResOwr18ZQ4jRV20wW1LjkJoUdmyy9Y6Fv2uuw%2FrL3rjwVkMAtIiuYPOZtygeH8A6V4ofBqFKAe1QlYTBRJZ3j%2B5fIK1rmy02SKUvZ5Oq16WxhjROHUSy1kv6mMnKrAQEFpkorQXikvGFDOmhUHf3jlqZb37A9M8SxPBPEVaa4yg0Ma6bfpBlulAZfIPmU%2BP6HfNsWfdeZ6IrgmG5PNkV38VGM%2BxfGP5pxuyA6eDGeiQLARQGfVPPh8iwIDy6Ef1LJL8YVfyb8hxf%2Bv6jln4kAoosAPqnje%2BA8GF9cGP%2Bikv9wBchp%2F6GttQ2%2BV4Lbfw%3D%3D%3C%2Fdiagram%3E%3C%2Fmxfile%3E">
  <defs
     id="defs17">
    <clipPath
       id="clip-0">
      <path
         clip-rule="nonzero"
         d="M 0 0 L 251 0 L 251 274.5 L 0 274.5 Z M 0 0 "
         id="path2" />
    </clipPath>
    <clipPath
       id="clip-1">
      <path
         clip-rule="nonzero"
         d="M 0 0 L 311 0 L 311 274.5 L 0 274.5 Z M 0 0 "
         id="path5" />
    </clipPath>
    <clipPath
       id="clip-2">
      <path
         clip-rule="nonzero"
         d="M 0 0 L 371 0 L 371 274.5 L 0 274.5 Z M 0 0 "
         id="path8" />
    </clipPath>
    <clipPath
       id="clip-3">
      <path
         clip-rule="nonzero"
         d="M 0 4 L 251 4 L 251 274.5 L 0 274.5 Z M 0 4 "
         id="path11" />
    </clipPath>
    <clipPath
       id="clip-4">
      <path
         clip-rule="nonzero"
         d="M 0 4 L 371 4 L 371 274.5 L 0 274.5 Z M 0 4 "
         id="path14" />
    </clipPath>
  </defs>
  <path
     fill-rule="nonzero"
     fill="rgb(0%, 0%, 0%)"
     fill-opacity="1"
     d="M 4.5 3.113281 L 649.5 3.113281 L 649.5 255.703125 L 4.5 255.703125 Z M 4.5 3.113281 "
     id="path19" />
  <path
     fill-rule="nonzero"
     fill="rgb(100%, 100%, 100%)"
     fill-opacity="1"
     d="M 233.566406 157.46875 C 233.566406 144.722656 236.167969 133.492188 241.363281 123.785156 C 246.59375 114.015625 253.796875 106.433594 262.972656 101.035156 C 272.132813 95.648438 282.3125 92.953125 293.515625 92.953125 C 304.570313 92.953125 314.203125 95.355469 322.417969 100.160156 C 330.640625 104.972656 336.789063 111.054688 340.859375 118.414063 L 337.886719 120.058594 L 334.488281 120.058594 L 334.488281 94.910156 L 361.292969 94.910156 L 361.292969 220.898438 L 334.488281 220.898438 L 334.488281 195.316406 L 337.886719 195.316406 L 340.847656 196.980469 C 336.632813 204.472656 330.382813 210.65625 322.101563 215.535156 C 313.8125 220.414063 304.210938 222.855469 293.296875 222.855469 C 282.078125 222.855469 271.917969 220.082031 262.816406 214.527344 C 253.726563 208.980469 246.570313 201.21875 241.347656 191.234375 C 236.160156 181.316406 233.566406 170.0625 233.566406 157.46875 Z M 240.363281 157.46875 C 240.363281 168.949219 242.699219 179.152344 247.371094 188.085938 C 252.011719 196.953125 258.339844 203.832031 266.359375 208.726563 C 274.371094 213.613281 283.351563 216.058594 293.296875 216.058594 C 302.976563 216.058594 311.425781 213.933594 318.652344 209.675781 C 325.882813 205.417969 331.308594 200.078125 334.921875 193.648438 L 341.285156 182.339844 L 341.285156 217.5 L 337.886719 217.5 L 337.886719 214.101563 L 357.894531 214.101563 L 357.894531 217.5 L 354.496094 217.5 L 354.496094 98.308594 L 357.894531 98.308594 L 357.894531 101.707031 L 337.886719 101.707031 L 337.886719 98.308594 L 341.285156 98.308594 L 341.285156 120.058594 L 334.910156 121.703125 C 331.441406 115.433594 326.136719 110.210938 318.988281 106.027344 C 311.832031 101.84375 303.34375 99.75 293.515625 99.75 C 283.546875 99.75 274.515625 102.132813 266.421875 106.894531 C 258.339844 111.648438 251.988281 118.347656 247.355469 126.992188 C 242.695313 135.699219 240.363281 145.859375 240.363281 157.46875 Z M 334.488281 157.6875 C 334.488281 149.273438 332.8125 141.984375 329.460938 135.820313 C 326.144531 129.710938 321.679688 125.042969 316.070313 121.808594 C 310.433594 118.558594 304.21875 116.933594 297.429688 116.933594 C 290.636719 116.933594 284.457031 118.523438 278.890625 121.707031 C 273.359375 124.867188 268.933594 129.5 265.617188 135.601563 C 262.265625 141.765625 260.589844 149.054688 260.589844 157.46875 C 260.589844 166.035156 262.269531 173.4375 265.625 179.675781 C 268.945313 185.855469 273.378906 190.5625 278.914063 193.792969 C 284.476563 197.039063 290.648438 198.660156 297.429688 198.660156 C 304.21875 198.660156 310.433594 197.035156 316.070313 193.785156 C 321.671875 190.554688 326.136719 185.851563 329.453125 179.675781 C 332.808594 173.4375 334.488281 166.105469 334.488281 157.6875 Z M 341.285156 157.6875 C 341.285156 167.246094 339.335938 175.652344 335.441406 182.894531 C 331.511719 190.207031 326.183594 195.796875 319.464844 199.671875 C 312.777344 203.527344 305.433594 205.457031 297.429688 205.457031 C 289.421875 205.457031 282.109375 203.523438 275.492188 199.664063 C 268.847656 195.789063 263.566406 190.199219 259.636719 182.894531 C 255.742188 175.652344 253.792969 167.175781 253.792969 157.46875 C 253.792969 147.902344 255.746094 139.53125 259.644531 132.355469 C 263.578125 125.121094 268.867188 119.605469 275.515625 115.804688 C 282.128906 112.027344 289.433594 110.136719 297.429688 110.136719 C 305.433594 110.136719 312.777344 112.0625 319.464844 115.917969 C 326.179688 119.792969 331.503906 125.34375 335.433594 132.574219 C 339.335938 139.75 341.285156 148.121094 341.285156 157.6875 Z M 236.964844 157.46875 C 236.964844 145.289063 239.429688 134.597656 244.359375 125.390625 C 249.289063 116.179688 256.070313 109.039063 264.695313 103.964844 C 273.324219 98.890625 282.929688 96.351563 293.515625 96.351563 C 303.957031 96.351563 313.019531 98.601563 320.703125 103.09375 C 328.386719 107.589844 334.117188 113.246094 337.886719 120.058594 L 337.886719 98.308594 L 357.894531 98.308594 L 357.894531 217.5 L 337.886719 217.5 L 337.886719 195.316406 C 333.972656 202.273438 328.132813 208.039063 320.378906 212.605469 C 312.621094 217.171875 303.59375 219.457031 293.296875 219.457031 C 282.714844 219.457031 273.144531 216.847656 264.589844 211.628906 C 256.035156 206.40625 249.289063 199.085938 244.359375 189.660156 C 239.429688 180.234375 236.964844 169.503906 236.964844 157.46875 Z M 337.886719 157.6875 C 337.886719 148.699219 336.074219 140.867188 332.449219 134.199219 C 328.824219 127.527344 323.929688 122.417969 317.765625 118.863281 C 311.605469 115.3125 304.824219 113.535156 297.429688 113.535156 C 290.035156 113.535156 283.292969 115.273438 277.203125 118.753906 C 271.113281 122.234375 266.253906 127.308594 262.628906 133.980469 C 259.003906 140.648438 257.191406 148.480469 257.191406 157.46875 C 257.191406 166.605469 259.003906 174.542969 262.628906 181.285156 C 266.253906 188.027344 271.113281 193.175781 277.203125 196.730469 C 283.292969 200.28125 290.035156 202.058594 297.429688 202.058594 C 304.824219 202.058594 311.605469 200.28125 317.765625 196.730469 C 323.929688 193.175781 328.824219 188.027344 332.449219 181.285156 C 336.074219 174.542969 337.886719 166.675781 337.886719 157.6875 Z M 433.585938 222.855469 C 423.984375 222.855469 415.34375 221.203125 407.664063 217.902344 C 399.863281 214.546875 393.679688 209.839844 389.109375 203.777344 C 384.496094 197.648438 381.949219 190.617188 381.472656 182.6875 L 381.257813 179.085938 L 408.394531 179.085938 L 408.691406 182.152344 C 409.175781 187.105469 411.523438 191.167969 415.730469 194.339844 C 420.125 197.65625 426.007813 199.3125 433.367188 199.3125 C 440.140625 199.3125 445.394531 197.878906 449.136719 195.011719 C 452.597656 192.355469 454.328125 189.050781 454.328125 185.09375 C 454.328125 181.214844 452.597656 178.332031 449.136719 176.4375 C 444.75 174.039063 437.835938 171.640625 428.398438 169.246094 C 419.375 166.878906 411.992188 164.464844 406.253906 162.007813 C 400.183594 159.402344 394.976563 155.542969 390.644531 150.421875 C 386.121094 145.074219 383.859375 138.144531 383.859375 129.628906 C 383.859375 122.8125 385.882813 116.574219 389.929688 110.90625 C 393.914063 105.332031 399.523438 100.929688 406.753906 97.707031 C 413.863281 94.539063 421.9375 92.953125 430.976563 92.953125 C 444.980469 92.953125 456.359375 96.546875 465.105469 103.730469 C 474 111.039063 478.761719 120.992188 479.390625 133.59375 L 479.570313 137.160156 L 453.035156 137.160156 L 452.816406 134 C 452.449219 128.734375 450.355469 124.527344 446.539063 121.375 C 442.597656 118.125 437.195313 116.5 430.324219 116.5 C 423.953125 116.5 418.960938 117.804688 415.351563 120.421875 C 412.082031 122.785156 410.449219 125.855469 410.449219 129.628906 C 410.449219 132.605469 411.386719 135.03125 413.261719 136.90625 C 415.464844 139.113281 418.273438 140.890625 421.679688 142.238281 C 425.40625 143.71875 430.621094 145.382813 437.320313 147.234375 C 446.007813 149.589844 453.101563 151.921875 458.605469 154.226563 C 464.46875 156.683594 469.496094 160.363281 473.6875 165.265625 C 478.058594 170.378906 480.324219 176.964844 480.484375 185.023438 C 480.484375 192.304688 478.46875 198.84375 474.441406 204.648438 C 470.457031 210.382813 464.878906 214.867188 457.710938 218.097656 C 450.667969 221.269531 442.628906 222.855469 433.585938 222.855469 Z M 433.585938 216.058594 C 441.652344 216.058594 448.765625 214.671875 454.917969 211.898438 C 460.945313 209.1875 465.589844 205.476563 468.855469 200.773438 C 472.078125 196.132813 473.6875 190.929688 473.6875 185.160156 C 473.558594 178.722656 471.835938 173.5625 468.519531 169.683594 C 465.027344 165.597656 460.847656 162.535156 455.980469 160.496094 C 450.753906 158.304688 443.929688 156.070313 435.507813 153.785156 C 428.574219 151.867188 423.132813 150.125 419.175781 148.558594 C 414.898438 146.863281 411.324219 144.582031 408.453125 141.710938 C 405.253906 138.511719 403.652344 134.484375 403.652344 129.628906 C 403.652344 123.542969 406.222656 118.636719 411.363281 114.914063 C 416.164063 111.4375 422.484375 109.703125 430.324219 109.703125 C 438.824219 109.703125 445.667969 111.847656 450.867188 116.132813 C 456.183594 120.523438 459.09375 126.320313 459.597656 133.527344 L 456.207031 133.761719 L 456.207031 130.363281 L 476 130.363281 L 476 133.761719 L 472.605469 133.933594 C 472.074219 123.332031 468.136719 115.015625 460.792969 108.984375 C 453.296875 102.828125 443.359375 99.75 430.976563 99.75 C 422.902344 99.75 415.75 101.140625 409.523438 103.914063 C 403.414063 106.636719 398.726563 110.285156 395.460938 114.859375 C 392.257813 119.34375 390.65625 124.265625 390.65625 129.628906 C 390.65625 136.484375 392.382813 141.953125 395.832031 146.03125 C 399.476563 150.335938 403.84375 153.578125 408.933594 155.761719 C 414.359375 158.085938 421.40625 160.386719 430.070313 162.660156 C 440.066406 165.195313 447.507813 167.800781 452.398438 170.472656 C 458.21875 173.65625 461.125 178.527344 461.125 185.09375 C 461.125 191.285156 458.507813 196.390625 453.269531 200.40625 C 448.3125 204.207031 441.675781 206.109375 433.367188 206.109375 C 424.488281 206.109375 417.246094 203.996094 411.640625 199.769531 C 405.84375 195.398438 402.605469 189.746094 401.929688 182.8125 L 405.3125 182.484375 L 405.3125 185.882813 L 384.867188 185.882813 L 384.867188 182.484375 L 388.257813 182.277344 C 388.652344 188.847656 390.746094 194.648438 394.539063 199.6875 C 398.382813 204.789063 403.652344 208.78125 410.351563 211.660156 C 417.171875 214.59375 424.917969 216.058594 433.585938 216.058594 Z M 433.585938 219.457031 C 424.449219 219.457031 416.257813 217.898438 409.007813 214.78125 C 401.757813 211.664063 396.03125 207.3125 391.824219 201.730469 C 387.621094 196.148438 385.300781 189.734375 384.867188 182.484375 L 405.3125 182.484375 C 405.890625 188.425781 408.683594 193.285156 413.683594 197.054688 C 418.6875 200.824219 425.25 202.710938 433.367188 202.710938 C 440.910156 202.710938 446.851563 201.042969 451.203125 197.707031 C 455.554688 194.371094 457.726563 190.167969 457.726563 185.09375 C 457.726563 179.871094 455.410156 175.992188 450.769531 173.457031 C 446.128906 170.917969 438.949219 168.417969 429.234375 165.953125 C 420.390625 163.632813 413.175781 161.277344 407.59375 158.882813 C 402.011719 156.492188 397.226563 152.9375 393.238281 148.226563 C 389.253906 143.515625 387.257813 137.316406 387.257813 129.628906 C 387.257813 123.539063 389.070313 117.957031 392.695313 112.882813 C 396.320313 107.808594 401.46875 103.785156 408.136719 100.8125 C 414.808594 97.839844 422.421875 96.351563 430.976563 96.351563 C 444.171875 96.351563 454.828125 99.6875 462.949219 106.359375 C 471.066406 113.027344 475.417969 122.164063 476 133.761719 L 456.207031 133.761719 C 455.769531 127.527344 453.269531 122.523438 448.703125 118.753906 C 444.132813 114.984375 438.007813 113.101563 430.324219 113.101563 C 423.21875 113.101563 417.5625 114.621094 413.359375 117.667969 C 409.152344 120.710938 407.050781 124.699219 407.050781 129.628906 C 407.050781 133.546875 408.320313 136.769531 410.855469 139.308594 C 413.394531 141.847656 416.585938 143.875 420.425781 145.398438 C 424.269531 146.921875 429.597656 148.625 436.414063 150.511719 C 444.96875 152.828125 451.929688 155.113281 457.292969 157.359375 C 462.660156 159.609375 467.261719 162.980469 471.105469 167.476563 C 474.945313 171.96875 476.941406 177.84375 477.085938 185.09375 C 477.085938 191.617188 475.273438 197.488281 471.648438 202.710938 C 468.023438 207.929688 462.910156 212.027344 456.316406 215 C 449.71875 217.972656 442.140625 219.457031 433.585938 219.457031 Z M 564.085938 92.738281 C 573.640625 92.738281 582.289063 94.789063 590.039063 98.894531 C 597.894531 103.0625 604.054688 109.289063 608.511719 117.582031 C 612.914063 125.769531 615.117188 135.65625 615.117188 147.246094 L 615.117188 220.898438 L 588.746094 220.898438 L 588.746094 150.074219 C 588.746094 139.085938 586.082031 130.761719 580.753906 125.109375 C 575.476563 119.515625 568.183594 116.714844 558.867188 116.714844 C 549.402344 116.714844 541.925781 119.625 536.433594 125.4375 C 530.890625 131.308594 528.117188 140.027344 528.117188 151.597656 L 528.117188 220.898438 L 501.527344 220.898438 L 501.527344 53.152344 L 528.117188 53.152344 L 528.117188 115.273438 L 524.71875 115.273438 L 521.859375 113.4375 C 526.121094 106.8125 531.980469 101.691406 539.441406 98.078125 C 546.796875 94.515625 555.011719 92.738281 564.085938 92.738281 Z M 564.085938 99.535156 C 556.050781 99.535156 548.824219 101.085938 542.402344 104.195313 C 536.089844 107.253906 531.148438 111.558594 527.578125 117.113281 L 521.320313 126.847656 L 521.320313 56.550781 L 524.71875 56.550781 L 524.71875 59.949219 L 504.925781 59.949219 L 504.925781 56.550781 L 508.324219 56.550781 L 508.324219 217.5 L 504.925781 217.5 L 504.925781 214.101563 L 524.71875 214.101563 L 524.71875 217.5 L 521.320313 217.5 L 521.320313 151.597656 C 521.320313 138.226563 524.710938 127.953125 531.492188 120.773438 C 538.324219 113.535156 547.449219 109.917969 558.867188 109.917969 C 570.140625 109.917969 579.082031 113.429688 585.699219 120.449219 C 592.261719 127.410156 595.542969 137.285156 595.542969 150.074219 L 595.542969 217.5 L 592.144531 217.5 L 592.144531 214.101563 L 611.71875 214.101563 L 611.71875 217.5 L 608.320313 217.5 L 608.320313 147.246094 C 608.320313 136.796875 606.386719 127.980469 602.527344 120.800781 C 598.71875 113.722656 593.496094 108.421875 586.855469 104.902344 C 580.101563 101.324219 572.511719 99.535156 564.085938 99.535156 Z M 564.085938 96.136719 C 573.074219 96.136719 581.195313 98.054688 588.445313 101.898438 C 595.695313 105.742188 601.386719 111.503906 605.519531 119.191406 C 609.652344 126.875 611.71875 136.226563 611.71875 147.246094 L 611.71875 217.5 L 592.144531 217.5 L 592.144531 150.074219 C 592.144531 138.183594 589.171875 129.085938 583.226563 122.777344 C 577.28125 116.472656 569.160156 113.316406 558.867188 113.316406 C 548.425781 113.316406 540.125 116.578125 533.960938 123.105469 C 527.800781 129.628906 524.71875 139.128906 524.71875 151.597656 L 524.71875 217.5 L 504.925781 217.5 L 504.925781 56.550781 L 524.71875 56.550781 L 524.71875 115.273438 C 528.632813 109.183594 534.035156 104.472656 540.921875 101.136719 C 547.808594 97.800781 555.53125 96.136719 564.085938 96.136719 Z M 564.085938 96.136719 "
     id="path21" />
  <path
     fill-rule="nonzero"
     fill="rgb(100%, 100%, 100%)"
     fill-opacity="1"
     stroke-width="14"
     stroke-linecap="butt"
     stroke-linejoin="miter"
     stroke="rgb(0%, 0%, 0%)"
     stroke-opacity="1"
     stroke-miterlimit="10"
     d="M 87.490135 24.500562 C 45.988122 63.24044 45.991805 121.838233 87.490135 160.581794 C 128.988466 121.838233 128.992149 63.24044 87.490135 24.500562 Z M 87.490135 24.500562 "
     transform="matrix(0.53033, 0.53033, -0.53033, 0.53033, 68.29786, -26.075628)"
     id="path23" />
  <path
     fill-rule="nonzero"
     fill="rgb(100%, 100%, 100%)"
     fill-opacity="1"
     stroke-width="14"
     stroke-linecap="butt"
     stroke-linejoin="miter"
     stroke="rgb(0%, 0%, 0%)"
     stroke-opacity="1"
     stroke-miterlimit="10"
     d="M 247.490141 24.500554 C 205.988127 63.240432 205.99181 121.838226 247.490141 160.581786 C 288.988472 121.838226 288.992154 63.240432 247.490141 24.500554 Z M 247.490141 24.500554 "
     transform="matrix(0.53033, 0.53033, -0.53033, 0.53033, 103.445043, -110.928437)"
     id="path25" />
  <path
     fill-rule="nonzero"
     fill="rgb(100%, 100%, 100%)"
     fill-opacity="1"
     d="M 101.703125 93.316406 C 59.148438 91.851563 28.074219 122.929688 29.535156 165.484375 C 72.089844 166.945313 103.167969 135.871094 101.703125 93.316406 Z M 101.703125 93.316406 "
     id="path27" />
  <g
     clip-path="url(#clip-0)"
     id="g31">
    <path
       fill="none"
       stroke-width="14"
       stroke-linecap="butt"
       stroke-linejoin="miter"
       stroke="#000000"
       stroke-opacity="1"
       stroke-miterlimit="10"
       d="m 87.490144,104.50056 c -41.502013,38.73988 -41.49833,97.33767 0,136.08123 41.498326,-38.74356 41.502016,-97.34135 0,-136.08123 z m 0,0"
       transform="matrix(0.53033,0.53033,-0.53033,0.53033,110.72426,-8.502036)"
       id="path29" />
  </g>
  <path
     fill-rule="nonzero"
     fill="rgb(100%, 100%, 100%)"
     fill-opacity="1"
     d="M 161.703125 93.316406 C 119.148438 91.851563 88.074219 122.929688 89.535156 165.484375 C 132.089844 166.945313 163.167969 135.871094 161.703125 93.316406 Z M 161.703125 93.316406 "
     id="path33" />
  <g
     clip-path="url(#clip-1)"
     id="g37">
    <path
       fill="none"
       stroke-width="14"
       stroke-linecap="butt"
       stroke-linejoin="miter"
       stroke="#000000"
       stroke-opacity="1"
       stroke-miterlimit="10"
       d="m 167.49015,104.50056 c -41.50201,38.73988 -41.49833,97.33767 0,136.08123 41.49833,-38.74356 41.50201,-97.34135 0,-136.08123 z m 0,0"
       transform="matrix(0.53033,0.53033,-0.53033,0.53033,128.29785,-50.928444)"
       id="path35" />
  </g>
  <path
     fill-rule="nonzero"
     fill="rgb(100%, 100%, 100%)"
     fill-opacity="1"
     d="M 221.703125 93.316406 C 179.148438 91.851563 148.074219 122.929688 149.535156 165.484375 C 192.089844 166.945313 223.167969 135.871094 221.703125 93.316406 Z M 221.703125 93.316406 "
     id="path39" />
  <g
     clip-path="url(#clip-2)"
     id="g43">
    <path
       fill="none"
       stroke-width="14"
       stroke-linecap="butt"
       stroke-linejoin="miter"
       stroke="#000000"
       stroke-opacity="1"
       stroke-miterlimit="10"
       d="m 247.49014,104.50056 c -41.50201,38.73988 -41.49833,97.33767 0,136.08123 41.49834,-38.74356 41.50202,-97.34135 0,-136.08123 z m 0,0"
       transform="matrix(0.53033,0.53033,-0.53033,0.53033,145.87145,-93.354848)"
       id="path41" />
  </g>
  <path
     fill-rule="nonzero"
     fill="rgb(100%, 100%, 100%)"
     fill-opacity="1"
     d="M 101.703125 153.316406 C 59.148438 151.851563 28.074219 182.929688 29.535156 225.484375 C 72.089844 226.945313 103.167969 195.871094 101.703125 153.316406 Z M 101.703125 153.316406 "
     id="path45" />
  <g
     clip-path="url(#clip-3)"
     id="g49">
    <path
       fill="none"
       stroke-width="14"
       stroke-linecap="butt"
       stroke-linejoin="miter"
       stroke="#000000"
       stroke-opacity="1"
       stroke-miterlimit="10"
       d="m 87.490143,184.50056 c -41.502013,38.73988 -41.498331,97.33768 0,136.08124 41.498327,-38.74356 41.502017,-97.34136 0,-136.08124 z m 0,0"
       transform="matrix(0.53033,0.53033,-0.53033,0.53033,153.15067,9.071556)"
       id="path47" />
  </g>
  <path
     fill-rule="nonzero"
     fill="rgb(100%, 100%, 100%)"
     fill-opacity="1"
     d="M 221.703125 153.316406 C 179.148438 151.851563 148.074219 182.929688 149.535156 225.484375 C 192.089844 226.945313 223.167969 195.871094 221.703125 153.316406 Z M 221.703125 153.316406 "
     id="path51" />
  <g
     clip-path="url(#clip-4)"
     id="g55">
    <path
       fill="none"
       stroke-width="14"
       stroke-linecap="butt"
       stroke-linejoin="miter"
       stroke="#000000"
       stroke-opacity="1"
       stroke-miterlimit="10"
       d="m 247.49015,184.50056 c -41.50201,38.73988 -41.49833,97.33767 0,136.08123 41.49834,-38.74356 41.50202,-97.34135 0,-136.08123 z m 0,0"
       transform="matrix(0.53033,0.53033,-0.53033,0.53033,188.29785,-75.781257)"
       id="path53" />
  </g>
</svg>
