<?xml version="1.0" encoding="UTF-8"?>
<!DOCTYPE svg PUBLIC "-//W3C//DTD SVG 1.1//EN" "http://www.w3.org/Graphics/SVG/1.1/DTD/svg11.dtd">
<svg xmlns="http://www.w3.org/2000/svg" xmlns:xlink="http://www.w3.org/1999/xlink" version="1.1" width="338px" height="338px" viewBox="-0.5 -0.5 338 338"><defs><style type="text/css">@import url(https://fonts.googleapis.com/css?family=f);&#xa;@import url(https://fonts.googleapis.com/css?family=Poppins);&#xa;</style></defs><g><rect x="3.5" y="3.54" width="330" height="330" fill="#000000" stroke="none" pointer-events="all"/><path d="M 88.49 20.5 C 46.99 59.24 46.99 117.84 88.49 156.58 C 129.99 117.84 129.99 59.24 88.49 20.5 Z" fill="#ffffff" stroke="#000000" stroke-width="14" stroke-miterlimit="10" transform="rotate(45,88.5,88.54)" pointer-events="all"/><path d="M 248.49 20.5 C 206.99 59.24 206.99 117.84 248.49 156.58 C 289.99 117.84 289.99 59.24 248.49 20.5 Z" fill="#ffffff" stroke="#000000" stroke-width="14" stroke-miterlimit="10" transform="rotate(45,248.5,88.54)" pointer-events="all"/><path d="M 88.49 100.5 C 46.99 139.24 46.99 197.84 88.49 236.58 C 129.99 197.84 129.99 139.24 88.49 100.5 Z" fill="#ffffff" stroke="#000000" stroke-width="14" stroke-miterlimit="10" transform="rotate(45,88.5,168.54)" pointer-events="all"/><path d="M 168.49 100.5 C 126.99 139.24 126.99 197.84 168.49 236.58 C 209.99 197.84 209.99 139.24 168.49 100.5 Z" fill="#ffffff" stroke="#000000" stroke-width="14" stroke-miterlimit="10" transform="rotate(45,168.5,168.54)" pointer-events="all"/><path d="M 248.49 100.5 C 206.99 139.24 206.99 197.84 248.49 236.58 C 289.99 197.84 289.99 139.24 248.49 100.5 Z" fill="#ffffff" stroke="#000000" stroke-width="14" stroke-miterlimit="10" transform="rotate(45,248.5,168.54)" pointer-events="all"/><path d="M 88.49 180.5 C 46.99 219.24 46.99 277.84 88.49 316.58 C 129.99 277.84 129.99 219.24 88.49 180.5 Z" fill="#ffffff" stroke="#000000" stroke-width="14" stroke-miterlimit="10" transform="rotate(45,88.5,248.54)" pointer-events="all"/><path d="M 248.49 180.5 C 206.99 219.24 206.99 277.84 248.49 316.58 C 289.99 277.84 289.99 219.24 248.49 180.5 Z" fill="#ffffff" stroke="#000000" stroke-width="14" stroke-miterlimit="10" transform="rotate(45,248.5,248.54)" pointer-events="all"/></g></svg>