<?xml version="1.0" standalone="no"?>
<!DOCTYPE svg PUBLIC "-//W3C//DTD SVG 20010904//EN"
 "http://www.w3.org/TR/2001/REC-SVG-20010904/DTD/svg10.dtd">
<svg version="1.0" xmlns="http://www.w3.org/2000/svg"
 width="338.000000pt" height="338.000000pt" viewBox="0 0 338.000000 338.000000"
 preserveAspectRatio="xMidYMid meet">
<metadata>
Created by potrace 1.14, written by Peter Selinger 2001-2017
</metadata>
<g transform="translate(0.000000,338.000000) scale(0.100000,-0.100000)"
fill="#000000" stroke="none">
<path d="M40 1690 l0 -1650 1650 0 1650 0 0 1650 0 1650 -1650 0 -1650 0 0
-1650z m1256 1139 c-40 -399 -347 -705 -746 -745 l-73 -7 7 73 c27 272 181
512 411 641 106 59 261 105 369 108 l39 1 -7 -71z m1600 0 c-33 -334 -256
-611 -570 -708 -37 -11 -72 -21 -77 -21 -5 0 -9 32 -9 70 l0 70 -70 0 c-38 0
-70 4 -70 9 0 5 10 40 21 77 61 198 195 364 374 465 106 59 261 105 369 108
l39 1 -7 -71z m-1600 -800 c-40 -399 -347 -705 -746 -745 l-73 -7 7 73 c27
272 181 512 411 641 106 59 261 105 369 108 l39 1 -7 -71z m800 0 c-33 -334
-256 -611 -570 -708 -37 -11 -72 -21 -77 -21 -5 0 -9 32 -9 70 l0 70 -70 0
c-38 0 -70 4 -70 9 0 5 10 40 21 77 61 198 195 364 374 465 106 59 261 105
369 108 l39 1 -7 -71z m800 0 c-40 -399 -347 -705 -746 -745 l-73 -7 7 73 c27
272 181 512 411 641 106 59 261 105 369 108 l39 1 -7 -71z m-1600 -800 c-40
-399 -347 -705 -746 -745 l-73 -7 7 73 c27 272 181 512 411 641 106 59 261
105 369 108 l39 1 -7 -71z m1600 0 c-40 -399 -347 -705 -746 -745 l-73 -7 7
73 c27 272 181 512 411 641 106 59 261 105 369 108 l39 1 -7 -71z"/>
</g>
</svg>
